<svg id="Layer_1" data-name="Layer 1" xmlns="http://www.w3.org/2000/svg" viewBox="0 0 398.24 379.35"><defs><style>.cls-1{fill:#fff;}</style></defs><path d="M2,169.9C19,141,38.89,114.35,64.9,93,77.57,82.63,92,74.32,105.58,65.08a4.74,4.74,0,0,0,2.27-2.44L94.93,64.22A85.52,85.52,0,0,1,85,65.33c-7.44,0-11.08-6-7-12.23a29.24,29.24,0,0,1,9.36-8.64c16.78-10,35.28-14.68,54.56-16.46a200.35,200.35,0,0,1,73.23,6.81c1.44.4,2.89.78,4.35,1.12a10.08,10.08,0,0,1,2.06.55c-3.33-2.86-6.68-7.49-9.89-10.47s-4.88-6.44-3.31-10.77,5.3-5.36,9.21-5.72c10.65-1,19.54,3.49,27.51,9.85,7.28,5.82,14.16,12.12,22,18.93,27.79-11.62,58.16-9.94,88.27,1.88,4.93,1.94,9.23,5.78,13.44,9.2,3,2.41,5,6.32,2.77,9.75A12.35,12.35,0,0,1,363.71,64c-14.86,1.92-29.8,3.25-44.71,4.78l-5.32.58a17.49,17.49,0,0,0,1.72,2.39c22.48,21.19,36.8,47.47,47.51,76,2.22,5.92,4.46,11.84,6.44,17.84.71,2.17,1.35,4.76.82,6.84-.72,2.83-2,6.44-4.18,7.68-1.92,1.09-5.59-.2-8.19-1.22-2.21-.87-4-2.83-6.75-4.9-.31,3.51-.65,6.36-.8,9.23-.45,9-1,18-5.47,26.16a5.79,5.79,0,0,0-.6,2.88c.29,10.64-4.38,19.72-9.31,28.61-1.09,1.95-4,4.11-6,4-3.47-.12-3-3.62-3-6.3,0-6.29.1-12.6-.42-18.85-.16-1.88-1.94-3.93-3.49-5.34-8.21-7.52-16.48-15-25-22.18-2.08-1.77-5.06-3.38-7.66-3.44-8.47-.2-17,.2-25.42.79-1.4.1-3.21,2.09-3.88,3.62-6.54,14.83-13.77,29.26-24,41.94a89.74,89.74,0,0,1-10.94,11.61c-11.26,9.73-23.67,9.84-35.42.51-9.33-7.4-16-16.89-20.63-27.8-1.11-2.6-2.14-5.23-3.55-8.66-1.14,1.79-2,3-2.76,4.35a107.16,107.16,0,0,1-25.39,29.95c-15,12.1-31.59,13.24-48.3,3.6-12.5-7.23-21.35-17.88-28.56-30.11-.67-1.14-1.4-2.25-2.13-3.36-.07-.1-.3-.11-.9-.32C53.64,221.39,50,228,45.89,234.4c-2.39,3.77-4.9,7.71-8.22,10.56-2.2,1.88-6.61,3.46-8.8,2.47-2.48-1.13-5-5.3-5-8.12.11-14,.57-28,1.85-41.91,1.3-14.21,3.68-28.33,5.63-42.77-4.25,4.87-8.43,9.74-12.69,14.53C17,171,15.21,172.8,13.39,174.5c-4.89,4.56-6.1,4.58-11.39.4C.34,173.37,1.22,171.32,2,169.9ZM218.64,19.08c3.36,4.06,6.2,7.07,8.55,10.42,5.2,7.39,9.88,15.22,19.55,17.7a11.65,11.65,0,0,1,4.14,2.14c1.41,1.08,2.87,3.48,2.1,5.12s-3.44,1.37-4.92,1a115.33,115.33,0,0,1-13.86-4.1c-20.29-7.43-41-12.84-62.67-14C144.68,36,118.6,38.83,94.41,51.76c-1.27.69-2.46,1.52-3.16,2,13.51-.36,27.14-1.19,40.75-.92,7.41.15,14.82,2,22.14,3.53,1.4.29,3.94,2.11,3.59,3.86s-3.25,2.19-4.88,2.21a125.07,125.07,0,0,1-12.95-.83c-7.12-.65-13.79-.29-19.21,5.47-1.86,2-4.87,2.85-7.19,4.46C98.07,82.21,82.1,92.26,67.48,104,56.83,112.54,48,123.33,38.34,133.12l.4,1.38c4.87-.09,5.53,2.46,5.09,6.18-2.89,24.31-5.77,48.62-8.39,73-.56,5.16-.08,10.43-.08,16.44,1.24-1.89,2.17-3.17,3-4.53,15.74-27.09,31.6-54.08,51.61-78.37,2.17-2.64,2.68-4.54,5.91-7,1.43-1.2,4.89-2.54,7.23-.49,1.62,1.42.2,4.41-.42,6.46-.81,2.66-2.35,5.41-1.92,7.82a176.06,176.06,0,0,0,5.47,22.3A112.75,112.75,0,0,0,114,195.16c3.94,7.3,6.66,7.49,12.64,1.88a70.48,70.48,0,0,0,7.76-8.45c6.71-8.72,13.07-17.69,19.85-26.35,8.81-11.28,18.23-22.06,29.92-30.49,1.63-1.18,4.4-.8,6.64-1.14-.32,2.13.13,5-1.08,6.26-5.35,5.72-5.11,11.67-2.06,18.2.91,1.94,1.26,4.14,2.05,6.15,5.78,14.58,17.4,19.21,30.87,11.27,8.69-5.13,16.48-11.79,24.64-17.8,5.05-3.72,9.81-7.93,15.2-11.07,2.24-1.31,6.79-1.64,8.49-.23,3,2.51-.45,5.21-2,7.63-.15.23-.09.61-.15,1.2,17.4,10.38,31,25.33,45.35,39.43a142,142,0,0,0,13.58,11.78c6.33,4.83,9.27,3.92,11.11-3.93,1.46-6.28,1.28-12.92,2.55-19.26,2.06-10.27.73-18.84-9.08-24.76a4,4,0,0,1-.64-5.09c.86-1.22,3.12-.34,4.86.59,2.83,1.51,5.3,3.67,7.93,5.56l-.23-1.72c.11-3.87,5-6.19,7.53-3,1.72,2.3,1.38,6.64,1.67,10,2.89,2.42,3.82,3.83,7.86,6.45.14-.67.34-1,.25-1.27-12.11-35.58-28.36-68.67-57-94.27-1-.91-2.54-1.25-3.81-1.89s-3.42-1.8-3.87-2.08C291,66.4,294.61,62,297.19,61a16.09,16.09,0,0,1,4.46-.08c3.33.31,6.72,1.42,9.94,1,9.58-1.19,19.09-3,28.63-4.48,6.31-1,12.64-1.83,19.34-2.8-12.95-14-64.75-18.53-89.45-8.27,1.24,1.81,2.59,3.51,3.65,5.36,1.66,2.91,5,6.27,1.21,9.23s-6.25-1.17-8.45-3.62c-8-8.93-15.65-18.2-23.87-26.92A34.25,34.25,0,0,0,218.64,19.08ZM107,228.27c-.36-.65-.76-2.34-1.82-3.1-6.35-4.55-12.79-9-19.36-13.21-.88-.56-3.35-.16-3.89.61-.74,1.08-1,3.67-.33,4.36a230.89,230.89,0,0,0,18.13,16.14C102.68,235.35,106.79,232.66,107,228.27Zm100.49,1.29c-.23-.58-.34-2-1.1-2.64-5.66-4.83-11.38-9.6-17.27-14.14-.76-.58-2.94-.11-3.89.62-.76.59-1.3,2.88-.82,3.43,5.32,6,10.56,12.14,16.5,17.51C203.34,236.52,207.36,233.55,207.5,229.56Zm-27.69-64.25c-1.13-4.35-2-7.77-3.14-12.13L165,166.11ZM92.14,162l-7.68,10.46,9.23-1.55C93.18,168,92.77,165.65,92.14,162Zm162.51,0,11.26.81C259.73,156.67,259.63,156.66,254.65,162Z" transform="translate(-1.06 -9.38)"/><path d="M68.76,298.12a102.19,102.19,0,0,1-12.91-39.59,247.67,247.67,0,0,1-1.27-26.42c0-1.76,1.74-4.75,3.15-5.07,3.32-.74,3.72,2.36,4.1,4.91,2.48,16.63,4.77,33.27,10.94,49.12q13.22,34,48.9,40.07c34.3,5.91,67.4.79,99.46-11.8,12.06-4.74,23.6-10.8,35.44-16.12,3.62-1.63,8.43-5.22,11.05-.59,2.52,4.46-2.74,7.31-6.09,9.42C243.08,313.71,223,321.55,202,327.34c-27.36,7.56-55.08,9.72-83.11,4.55-17.37-3.2-32.41-10.83-44-24.63-1-1.22-4.21-1.73-5.91-1.15-21.77,7.45-35.21,22.83-40.68,44.9-1.64,6.65-1.34,13.81-1.61,20.75-.17,4.31.45,8.66.31,13,0,1.36-1.42,2.67-2.19,4-1.27-.89-3.06-1.5-3.7-2.72a39.27,39.27,0,0,1-3.14-8.35C10.57,349.09,29.37,305.92,68.76,298.12Z" transform="translate(-1.06 -9.38)"/><path d="M339.5,295.43c8.71.84,16.19,1.36,23.61,2.3,19.05,2.41,38.46,17.79,36,44.76-1.39,15.12-4.9,29.57-13.09,42.51a6.91,6.91,0,0,1-1.73,1.77,3.33,3.33,0,0,1-5.25-2.59,7,7,0,0,1,.19-1.95c2.15-8,5.21-15.82,7.15-23.89a98.2,98.2,0,0,0,2.79-20.1,29.49,29.49,0,0,0-24.73-30.08c-13.53-2.15-27.31-2.77-41-4-1.65-.15-3.44.33-5-.14s-2.73-1.78-4.08-2.72c1.17-1.16,2.21-3.14,3.52-3.33C325.46,296.83,333.07,296.14,339.5,295.43Z" transform="translate(-1.06 -9.38)"/><path d="M167.29,295.67c-2,2.5-3.76,4.94-5.8,7.09-8,8.47-17.67,10.79-26.64,6.55-10.23-4.83-16.94-16.63-15.49-27.29a16.79,16.79,0,0,1,.83-3.86c.61-1.55,2.34-3.66,4.12-3.42s2.74,2.67,2.76,4a24,24,0,0,0,6.09,16c6,6.9,13.58,7.35,19.86.77,2.37-2.49,4.07-5.64,5.93-8.58,4-6.42,8.71-7,14.26-1.75a96.28,96.28,0,0,0,8.54,7.64c4.89,3.62,8.79,2.61,11-3.07,1.49-3.83,1.8-8.12,3.14-12,.67-2,1.63-5.15,3.79-5.23,2.32-.1,4,3.27,4.46,5.27,2.07,8.55.8,16.59-5.68,23.12-6.09,6.13-13.63,7.09-20.92,2.5C174,301.19,170.89,298.41,167.29,295.67Z" transform="translate(-1.06 -9.38)"/><path class="cls-1" d="M107,228.27c-.22,4.39-4.33,7.08-7.27,4.8a230.89,230.89,0,0,1-18.13-16.14c-.72-.69-.41-3.28.33-4.36.54-.77,3-1.17,3.89-.61,6.57,4.22,13,8.66,19.36,13.21C106.25,225.93,106.65,227.62,107,228.27Z" transform="translate(-1.06 -9.38)"/><path class="cls-1" d="M207.5,229.56c-.14,4-4.16,7-6.58,4.78-5.94-5.37-11.18-11.51-16.5-17.51-.48-.55.06-2.84.82-3.43.95-.73,3.13-1.2,3.89-.62,5.89,4.54,11.61,9.31,17.27,14.14C207.16,227.57,207.27,229,207.5,229.56Z" transform="translate(-1.06 -9.38)"/></svg>